<svg xmlns="http://www.w3.org/2000/svg" xmlns:xlink="http://www.w3.org/1999/xlink" xmlns:sketch="http://www.bohemiancoding.com/sketch/ns" width="100px" height="100px" viewBox="0 0 100 100" version="1.1">
    <title>End terms</title>
    <description>Created with Sketch (http://www.bohemiancoding.com/sketch)</description>
    <defs/>
    <g id="Page-1" stroke="none" stroke-width="1" fill="none" fill-rule="evenodd" sketch:type="MSPage">
        <g id="End-terms" sketch:type="MSArtboardGroup" fill="#000000">
            <ellipse d="M14.3497758,23.0311615 C17.8789498,23.0311615 20.7399103,20.1140368 20.7399103,16.5155807 C20.7399103,12.9171247 17.8789498,10 14.3497758,10 C10.8206018,10 7.95964126,12.9171247 7.95964126,16.5155807 C7.95964126,20.1140368 10.8206018,23.0311615 14.3497758,23.0311615 Z M14.3497758,23.0311615" id="Oval" sketch:type="MSShapeGroup" cx="14.3497758" cy="16.5155807" rx="6.39013453" ry="6.51558074"/>
            <path d="M22.8357215,33.3827406 L22.8198728,86.2327659 C22.8198728,88.2490521 21.1977496,89.8866856 19.1960481,89.8866856 C17.1943466,89.8866856 15.571431,88.2490521 15.571431,86.2327659 L15.5817327,55.577866 L13.967534,55.577866 L13.9643643,86.2327659 C13.9643643,88.2490521 12.3422411,89.8866856 10.3381623,89.8866856 C8.33804567,89.8866856 6.71354523,88.2490521 6.71354523,86.2327659 L6.72067718,33.3835394 L5.09776162,33.3835394 L5.09776162,52.8593945 C5.09776162,56.7489736 0,56.7489736 0,52.8593945 L0,32.8483129 C0,28.1534975 2.8678376,24.3909348 7.44575909,24.3909348 C7.44575909,24.3909348 12.6373975,24.4126246 17.9214546,24.3949186 C23.2055117,24.3772132 22.5838837,23.9953302 26.4626541,27.9655409 C30.3414246,31.9357517 38.9969294,40.641528 38.9969294,40.641528 C40.0476674,41.703577 40.0476674,43.4254988 38.9969294,44.4875479 C37.9461913,45.5495969 36.2426084,45.5495969 35.1918704,44.4875479 L24.2209798,33.398557 L22.8357215,33.3827406 Z M22.8357215,33.3827406" id="Shape" sketch:type="MSShapeGroup"/>
            <path d="M32.9596413,50 L32.9596413,55.6657224 L100,55.6657224 L100,50 L93.8340807,50 L93.8340807,29.8300283 L84.6412556,29.8300283 L84.6412556,50 L74.103139,50 L74.103139,41.388102 L58.4080717,41.388102 L58.4080717,50 L55.6053812,50 L55.6053812,37.1954674 L44.1704036,37.1954674 L44.1704036,50 L32.9596413,50 Z M45.0672646,52.4929178 L45.0672646,55.6657224 L50.6726457,55.6657224 L50.6726457,52.4929178 L45.0672646,52.4929178 Z M82.0627803,52.4929178 L82.0627803,55.6657224 L87.6681614,55.6657224 L87.6681614,52.4929178 L82.0627803,52.4929178 Z M82.0627803,52.4929178" id="Shape" sketch:type="MSShapeGroup"/>
            <path d="M49.5515695,53.6260623 L46.1883408,53.6260623 L46.1883408,86.6005666 L43.6098655,86.6005666 L41.9282511,86.6005666 L41.9282511,90 L43.6098655,90 L52.1307821,90 L53.8123965,90 L53.8123965,86.6005666 L52.1307821,86.6005666 L49.5515695,86.6005666 L49.5515695,53.6260623 Z M49.5515695,53.6260623" id="Line" sketch:type="MSShapeGroup"/>
            <path d="M86.5470852,53.6260623 L83.1838565,53.6260623 L83.1838565,86.6005666 L80.6053812,86.6005666 L78.9237668,86.6005666 L78.9237668,90 L80.6053812,90 L89.1262978,90 L90.8079122,90 L90.8079122,86.6005666 L89.1262978,86.6005666 L86.5470852,86.6005666 L86.5470852,53.6260623 Z M86.5470852,53.6260623" id="Line" sketch:type="MSShapeGroup"/>
        </g>
    </g>
</svg>