<?xml version="1.0" encoding="UTF-8" standalone="no"?>
<svg width="518px" height="411px" viewBox="0 0 518 411" version="1.1" xmlns="http://www.w3.org/2000/svg" xmlns:xlink="http://www.w3.org/1999/xlink" xmlns:sketch="http://www.bohemiancoding.com/sketch/ns">
    <title>Untitled</title>
    <description>Created with Sketch (http://www.bohemiancoding.com/sketch)</description>
    <defs></defs>
    <g id="Page-1" stroke="none" stroke-width="1" fill="none" fill-rule="evenodd" sketch:type="MSPage">
        <g id="icon_4735" sketch:type="MSLayerGroup" transform="translate(8.000000, 6.000000)" fill="#86B819">
            <g id="Group" sketch:type="MSShapeGroup">
                <path d="M214.268817,178.153405 L40.6236559,120.771486 L89.5268817,155.402865 L263.177419,212.779405 L214.268817,178.153405 Z" id="Shape"></path>
                <path d="M92.1505376,314.694297 L286.478495,378.906757 L286.478495,230.189216 L91.8817204,165.879946 L92.1505376,314.694297 Z" id="Shape"></path>
                <path d="M219.026882,170.231054 L226.005376,175.173784 L226.005376,99.4193243 L134.709677,142.155919 L217.811828,169.617919 C218.247312,169.763135 218.655914,169.967514 219.026882,170.231054 Z" id="Shape"></path>
                <path d="M295.688172,229.694405 L295.688172,378.046216 L430.150538,315.097676 L430.026882,166.805027 L295.688172,229.694405 Z" id="Shape"></path>
                <path d="M311.634409,212.053324 L431.919355,155.747081 L467.387097,119.045027 L347.107527,175.35127 L311.634409,212.053324 Z" id="Shape"></path>
                <path d="M384.102151,147.857 L235.215054,98.660973 L235.215054,181.692378 L290.403226,220.766297 L341.069892,168.332486 C341.456989,167.934486 341.919355,167.601027 342.430108,167.364378 L384.102151,147.857 Z" id="Shape"></path>
                <path d="M497.919355,97.3217568 C496.268817,95.0090541 493.865591,93.3901622 491.177419,92.690973 L495.526882,85.812027 C497.510753,82.6764324 497.930108,78.8685405 496.682796,75.3725946 C495.435484,71.8766486 492.693548,69.2035946 489.166667,68.0364865 L285.629032,0.779864865 C284.408602,0.376486486 283.150538,0.172108108 281.876344,0.172108108 C277.741935,0.172108108 273.962366,2.25891892 271.758065,5.74948649 L230.317204,71.2796486 L185.537634,11.7087297 C183.284946,8.71297297 179.709677,6.92735135 175.962366,6.92735135 C174.204301,6.92735135 172.494624,7.30921622 170.892473,8.05681081 L27.2204301,75.3134324 C23.9354839,76.8516486 21.5537634,79.7452162 20.672043,83.2680541 C19.7956989,86.7855135 20.5430108,90.4643243 22.7258065,93.3632703 L26.7204301,98.6771081 L16.7043011,95.3694054 C15.4892473,94.966027 14.2311828,94.767027 12.9569892,94.767027 C8.40860215,94.767027 4.31182796,97.2894865 2.2688172,101.344784 C-0.387096774,106.599459 1.23655914,113.118054 6.03763441,116.517189 L75.3010753,165.562622 L75.5806452,318.050405 C75.5860215,323.219027 78.8924731,327.78527 83.7956989,329.404162 L287.327957,396.666162 C288.548387,397.058784 289.811828,397.263162 291.086022,397.263162 C292.822581,397.263162 294.569892,396.875919 296.155914,396.133703 L439.827957,328.877081 C444.016129,326.913973 446.725806,322.654297 446.725806,318.012757 L446.602151,164.529973 L496.784946,112.60173 C500.795699,108.449622 501.268817,102.022459 497.919355,97.3217568 L497.919355,97.3217568 Z M491.365591,107.481514 L439.236559,161.426649 L439.360215,318.018135 C439.360215,319.803757 438.333333,321.433405 436.709677,322.197135 L293.043011,389.453757 C293.016129,389.469892 292.978495,389.459135 292.951613,389.47527 C292.38172,389.728054 291.752688,389.884027 291.086022,389.884027 C290.591398,389.884027 290.107527,389.80873 289.634409,389.652757 L86.1129032,322.401514 C84.2258065,321.777622 82.9516129,320.018892 82.9516129,318.03427 L82.6666667,161.830027 L10.172043,110.498784 C8.31182796,109.181081 7.69354839,106.701649 8.72043011,104.663243 C9.74731183,102.624838 12.1129032,101.651351 14.2741935,102.361297 L46.7795699,113.101919 L28.6129032,88.9314865 C27.7741935,87.8181622 27.4892473,86.3928919 27.827957,85.0482973 C28.1612903,83.6983243 29.0860215,82.5742432 30.344086,81.988 L174.016129,14.7313784 C175.983871,13.8062973 178.33871,14.3925405 179.645161,16.1351351 L230.83871,84.2361622 L277.989247,9.68645946 C279.11828,7.89545946 281.317204,7.11559459 283.322581,7.77713514 L486.854839,75.0283784 C488.204301,75.4747838 489.268817,76.5181892 489.741935,77.852027 C490.225806,79.1858649 490.05914,80.6702973 489.301075,81.8696757 L474.258065,105.658243 L486.102151,100.113135 C488.112903,99.1719189 490.510753,99.7958108 491.801075,101.608324 C493.091398,103.420838 492.908602,105.884135 491.365591,107.481514 L491.365591,107.481514 Z" id="Shape"></path>
            </g>
        </g>
    </g>
</svg>