<?xml version="1.0" encoding="UTF-8" standalone="no"?>
<svg width="541px" height="558px" viewBox="0 0 541 558" version="1.1" xmlns="http://www.w3.org/2000/svg" xmlns:xlink="http://www.w3.org/1999/xlink" xmlns:sketch="http://www.bohemiancoding.com/sketch/ns">
    <title>Untitled 2</title>
    <description>Created with Sketch (http://www.bohemiancoding.com/sketch)</description>
    <defs></defs>
    <g id="Page-1" stroke="none" stroke-width="1" fill="none" fill-rule="evenodd" sketch:type="MSPage">
        <g id="icon_14958" sketch:type="MSLayerGroup" transform="translate(20.000000, 21.000000)" fill="#8E19B8">
            <g id="Shape-+-Shape-+-Shape" sketch:type="MSShapeGroup">
                <path d="M369.252688,420.199237 C344.456989,420.199237 320.591398,413.171072 299.758065,399.798186 C281.317204,413.004247 259.080645,420.199237 236.284946,420.199237 C198.064516,420.199237 162.55914,399.808948 142.924731,367.407278 C130.553763,373.30534 117.05914,376.383526 103.317204,376.383526 C52.3763441,376.383526 10.9354839,334.897979 10.9354839,283.903423 C10.9354839,245.915814 34.1774194,212.190309 68.6989247,198.252371 C63.8763441,183.135897 61.4301075,167.513567 61.4301075,151.670598 C61.4301075,66.7729485 130.435484,-2.29787629 215.252688,-2.29787629 C259.096774,-2.29787629 300.139785,16.1174227 329.349462,48.5729072 C344.16129,39.5105567 360.967742,34.7695052 378.510753,34.7695052 C430.83871,34.7695052 473.413978,77.3905361 473.413978,129.773505 C473.413978,152.01501 465.489247,173.556928 451.344086,190.535381 C481.188172,215.042474 498.672043,251.614763 498.672043,290.657134 C498.666667,362.090412 440.612903,420.199237 369.252688,420.199237 L369.252688,420.199237 Z M298.930108,372.826392 L305.725806,377.804227 C324.370968,391.456948 346.33871,398.673464 369.252688,398.673464 C428.752688,398.673464 477.16129,350.218948 477.16129,290.667897 C477.16129,254.569175 459.231183,220.999732 429.198925,200.867753 L417.801075,193.231485 L427.930108,183.975402 C443.172043,170.053608 451.908602,150.29833 451.908602,129.778887 C451.908602,89.262 418.983871,56.3006598 378.510753,56.3006598 C362.301075,56.3006598 346.897849,61.5529485 333.962366,71.4870928 L325.564516,77.9448247 L318.983871,69.6358763 C293.650538,37.6055258 255.844086,19.2386598 215.258065,19.2386598 C142.295699,19.2386598 82.9408602,78.6551753 82.9408602,151.681361 C82.9408602,168.546804 86.1666667,185.127031 92.5215054,200.975381 L97.0645161,212.292557 L85.2795699,215.392268 C54.172043,223.577443 32.4516129,251.75468 32.4516129,283.908804 C32.4516129,323.031897 64.2473118,354.863134 103.327957,354.863134 C116.806452,354.863134 129.994624,350.988495 141.467742,343.664351 L151.774194,337.072082 L156.978495,348.152474 C171.403226,378.842845 202.537634,398.678845 236.295699,398.678845 C256.801075,398.678845 276.758065,391.419278 292.478495,378.245505 L298.930108,372.826392 L298.930108,372.826392 Z" id="Shape"></path>
                <path d="M115.591398,494.334 C91.0537634,494.334 71.0913978,474.352701 71.0913978,449.791794 C71.0913978,425.230887 91.0537634,405.249588 115.591398,405.249588 C140.134409,405.249588 160.102151,425.230887 160.102151,449.791794 C160.102151,474.352701 140.134409,494.334 115.591398,494.334 L115.591398,494.334 Z M115.591398,421.393918 C99.9462366,421.393918 87.2204301,434.131794 87.2204301,449.791794 C87.2204301,465.451794 99.9462366,478.18967 115.591398,478.18967 C131.241935,478.18967 143.973118,465.451794 143.973118,449.791794 C143.973118,434.131794 131.241935,421.393918 115.591398,421.393918 L115.591398,421.393918 Z" id="Shape"></path>
                <path d="M30.5107527,524.690722 C14.1182796,524.690722 0.779569892,511.344742 0.779569892,494.93134 C0.779569892,478.517938 14.1129032,465.171959 30.5107527,465.171959 C46.9086022,465.171959 60.2473118,478.517938 60.2473118,494.93134 C60.2473118,511.344742 46.9086022,524.690722 30.5107527,524.690722 L30.5107527,524.690722 Z M30.5107527,481.310907 C23.0107527,481.310907 16.9086022,487.418845 16.9086022,494.925959 C16.9086022,502.433072 23.0107527,508.54101 30.5107527,508.54101 C38.016129,508.54101 44.1182796,502.433072 44.1182796,494.925959 C44.1182796,487.418845 38.0107527,481.310907 30.5107527,481.310907 L30.5107527,481.310907 Z" id="Shape"></path>
            </g>
        </g>
    </g>
</svg>