<?xml version="1.0" encoding="UTF-8" standalone="no"?>
<svg width="154px" height="40px" viewBox="0 0 154 40" version="1.1" xmlns="http://www.w3.org/2000/svg" xmlns:xlink="http://www.w3.org/1999/xlink" xmlns:sketch="http://www.bohemiancoding.com/sketch/ns">
    <title>logo_web_gadgeto_3d_ideas</title>
    <description>Created with Sketch (http://www.bohemiancoding.com/sketch)</description>
    <defs></defs>
    <g id="Page-1" stroke="none" stroke-width="1" fill="none" fill-rule="evenodd" sketch:type="MSPage">
        <g id="logo_gadgeto" sketch:type="MSLayerGroup" transform="translate(1.000000, 1.000000)">
            <g id="Gadgeto-SVG" stroke="#FFFFFF" fill="#A6BF3C" sketch:type="MSShapeGroup">
                <g id="Group">
                    <path d="M5.71625874,17.5751724 L11.3980069,17.5751724 L11.3980069,10.8488621 L17.1487762,10.8488621 L17.1487762,23.0483793 L0,23.0483793 L0,5.474 C0,4.72689655 0.150034965,4.01865517 0.450594405,3.34742529 C0.750174825,2.67751724 1.16062937,2.09009195 1.68024476,1.58329885 C2.19986014,1.07782759 2.80611888,0.682862069 3.49926574,0.396551724 C4.19192307,0.111298851 4.94234265,-0.0314597701 5.75125874,-0.0314597701 L17.1490209,-0.0314597701 L17.1490209,5.47426437 L7.89923077,5.47426437 C7.34510489,5.49647126 6.92290209,5.61226437 6.63458042,5.82058621 C6.34552447,6.02970115 6.13234265,6.26604598 5.99356643,6.52988506 C5.83178322,6.83734483 5.73853147,7.17758621 5.71625874,7.5521954 L5.71625874,17.5751724 L5.71625874,17.5751724 Z" id="Shape"></path>
                    <path d="M33.1895455,-0.0319885057 C33.9747203,-0.0319885057 34.7195105,0.111034483 35.4244056,0.396022989 C36.1285664,0.682333333 36.7411888,1.07227586 37.2608042,1.56664368 C37.7804196,2.06074713 38.1901399,2.64367816 38.4902098,3.31437931 C38.7902797,3.98428736 38.9405595,4.69411494 38.9405595,5.44095402 L38.9405595,23.0481149 L33.2240559,23.0481149 L33.2240559,14.2441379 L25.5328672,14.2441379 L25.5328672,23.0481149 L19.8168532,23.0481149 L19.8168532,-0.0319885057 L33.1895455,-0.0319885057 L33.1895455,-0.0319885057 Z M25.5328672,9.1992069 L33.2243007,9.1992069 L33.2243007,7.51835632 C33.2008042,6.85849425 33.0165035,6.348 32.6699301,5.98555172 C32.3233566,5.62231034 31.7807343,5.44121839 31.0423077,5.44121839 L25.5328672,5.44121839 L25.5328672,9.1992069 L25.5328672,9.1992069 Z" id="Shape"></path>
                    <path d="M49.5073776,-0.0319885057 C51.0544755,-0.0319885057 52.4515384,0.104954023 53.6988112,0.379896552 C54.9463286,0.65483908 56.0085664,1.127 56.8865035,1.79822989 C57.7637063,2.4684023 58.4333566,3.36936782 58.8956993,4.5013908 C59.3573077,5.63314943 59.5883566,7.04513793 59.5883566,8.73841379 L59.5883566,14.2777126 C59.5883566,15.9487816 59.3749301,17.3446437 58.9473426,18.4650345 C58.5197553,19.5856897 57.8848601,20.4869195 57.0421678,21.1684598 C56.1982518,21.8505287 55.1477622,22.3348506 53.8892307,22.6203678 C52.6299651,22.905092 51.1697553,23.0481149 49.5071328,23.0481149 L41.4693706,23.0481149 L41.4693706,-0.0319885057 L49.5073776,-0.0319885057 L49.5073776,-0.0319885057 Z M48.3983916,17.6074253 C49.3916084,17.6074253 50.2056643,17.5862759 50.8410489,17.5413333 C51.4761888,17.4977126 51.9894405,17.3657931 52.3827622,17.1466322 C52.7751049,16.9264138 53.0585315,16.6073218 53.2315735,16.1904138 C53.4046154,15.7732414 53.5142657,15.1794713 53.5602797,14.4098966 C53.5602797,14.2777126 53.5661539,13.943023 53.5776574,13.403977 C53.5891608,12.8659885 53.5952797,12.2830575 53.5952797,11.6557126 L53.5952797,9.87545977 L53.5952797,8.83675862 C53.5952797,8.00267816 53.4963986,7.35391954 53.3005944,6.89206897 C53.1038112,6.43021839 52.7983566,6.09526437 52.3825175,5.88641379 C51.9664336,5.67835632 51.4299301,5.55648276 50.7710489,5.52370115 C50.1133916,5.4903908 49.3218532,5.474 48.3981468,5.474 L47.1858741,5.474 L47.1858741,17.6074253 L48.3983916,17.6074253 L48.3983916,17.6074253 Z" id="Shape"></path>
                    <path d="M67.7998951,17.5751724 L73.4813986,17.5751724 L73.4813986,10.8488621 L79.2329021,10.8488621 L79.2329021,23.0483793 L62.0831468,23.0483793 L62.0831468,5.474 C62.0831468,4.72689655 62.2336714,4.01865517 62.5330069,3.34742529 C62.8335664,2.67751724 63.2435315,2.09009195 63.7633916,1.58329885 C64.2830069,1.07782759 64.8892657,0.682862069 65.5819231,0.396551724 C66.2755595,0.111298851 67.0252447,-0.0314597701 67.8348951,-0.0314597701 L79.2329021,-0.0314597701 L79.2329021,5.47426437 L69.9823776,5.47426437 C69.4277622,5.49647126 69.0065384,5.61226437 68.7182167,5.82058621 C68.4284265,6.02970115 68.2154895,6.26604598 68.0772028,6.52988506 C67.9146853,6.83734483 67.8221678,7.17758621 67.7998951,7.5521954 L67.7998951,17.5751724 L67.7998951,17.5751724 Z" id="Shape"></path>
                    <path d="M81.935,-0.0319885057 L98.2875871,-0.0319885057 L98.2875871,5.44121839 L87.6865035,5.44121839 L87.6865035,8.17821839 L96.0358392,8.17821839 L96.0358392,13.0243448 L87.6865035,13.0243448 L87.6865035,17.5754368 L98.2525871,17.5754368 L98.2525871,23.0483793 L81.935,23.0483793 L81.935,-0.0319885057 L81.935,-0.0319885057 Z" id="Shape"></path>
                    <path d="M112.317937,5.40790805 L112.317937,23.0483793 L106.567167,23.0483793 L106.567167,5.40790805 L100.365315,5.40790805 L100.365315,-0.0658275862 L118.519545,-0.0658275862 L118.519545,5.40790805 L112.317937,5.40790805 L112.317937,5.40790805 Z" id="Shape"></path>
                    <path d="M121.325909,3.34742529 C121.625735,2.67751724 122.036188,2.09009195 122.556049,1.58329885 C123.07542,1.07782759 123.681923,0.682862069 124.374336,0.396551724 C125.067238,0.111298851 125.818392,-0.0314597701 126.626328,-0.0314597701 L140,-0.0314597701 L140,17.5757011 C140,18.3228046 139.84972,19.0323678 139.548672,19.7020115 C139.248601,20.372977 138.839371,20.9545862 138.319265,21.4492184 C137.799651,21.9443793 137.186783,22.3353793 136.483112,22.6208966 C135.778461,22.9056207 135.032937,23.0486437 134.248252,23.0486437 L120.875559,23.0486437 L120.875559,5.474 C120.875559,4.72689655 121.025105,4.01865517 121.325909,3.34742529 Z M126.591818,17.5751724 L132.101014,17.5751724 C133.001468,17.5751724 133.583986,17.3932874 133.850035,17.0308391 C134.115839,16.6681264 134.259755,16.1568391 134.283007,15.4980345 L134.283007,5.474 L128.775035,5.474 C128.220664,5.4962069 127.798706,5.612 127.510384,5.82032184 C127.221574,6.02943678 127.008392,6.26578161 126.869371,6.52962069 C126.707587,6.83708046 126.614336,7.17732184 126.592063,7.55193103 L126.592063,17.5751724 L126.591818,17.5751724 L126.591818,17.5751724 Z" id="Shape"></path>
                </g>
            </g>
            <text id="Materialising-Ideas" fill="#FFFFFF" sketch:type="MSTextLayer" font-family="Helvetica" font-size="14" font-weight="bold" line-spacing="14" letter-spacing="1.10000002">
                <tspan x="0" y="38">Materialising Ideas</tspan>
            </text>
        </g>
    </g>
</svg>