<?xml version="1.0" encoding="UTF-8" standalone="no"?>
<svg width="514px" height="417px" viewBox="0 0 514 417" version="1.1" xmlns="http://www.w3.org/2000/svg" xmlns:xlink="http://www.w3.org/1999/xlink" xmlns:sketch="http://www.bohemiancoding.com/sketch/ns">
    <title>Untitled</title>
    <description>Created with Sketch (http://www.bohemiancoding.com/sketch)</description>
    <defs></defs>
    <g id="Page-1" stroke="none" stroke-width="1" fill="none" fill-rule="evenodd" sketch:type="MSPage">
        <g id="project" sketch:type="MSLayerGroup" transform="translate(8.000000, 7.000000)">
            <path d="M114.178607,115.913703 L114.099364,380.163829 C114.099364,390.24526 105.988748,398.433428 95.9802405,398.433428 C85.971733,398.433428 77.857155,390.24526 77.857155,380.163829 L77.9086635,226.88933 L69.83767,226.88933 L69.8218215,380.163829 C69.8218215,390.24526 61.7112055,398.433428 51.6908115,398.433428 C41.6902283,398.433428 33.5677261,390.24526 33.5677261,380.163829 L33.6033859,115.917697 L25.4888081,115.917697 L25.4888081,213.296972 C25.4888081,232.744868 0,232.744868 0,213.296972 L0,113.241564 C0,89.7674875 14.339188,70.954674 37.2287954,70.954674 C37.2287954,70.954674 63.1869875,71.063123 89.607273,70.974593 C116.027558,70.886066 112.919419,68.976651 132.31327,88.8277045 C151.707123,108.678758 194.984647,152.20764 194.984647,152.20764 C200.238337,157.517885 200.238337,166.127494 194.984647,171.437739 C189.730956,176.747984 181.213042,176.747984 175.959352,171.437739 L121.104899,115.992785 L114.178607,115.913703 Z M66.5,64.8871992 C84.4492553,64.8871992 99,50.3364545 99,32.3871992 C99,14.437944 84.4492553,-0.11280077 66.5,-0.11280077 C48.5507447,-0.11280077 34,14.437944 34,32.3871992 C34,50.3364545 48.5507447,64.8871992 66.5,64.8871992 Z" id="Shape" fill="#4C6C07" sketch:type="MSShapeGroup"></path>
            <path d="M164.798206,199 L164.798206,227.328612 L500,227.328612 L500,199 L469.170404,199 L469.170404,98.1501415 L423.206278,98.1501415 L423.206278,199 L370.515695,199 L370.515695,155.94051 L292.040358,155.94051 L292.040358,199 L278.026906,199 L278.026906,134.977337 L220.852018,134.977337 L220.852018,199 L164.798206,199 L164.798206,199 Z M225.336323,211.464589 L225.336323,227.328612 L253.363228,227.328612 L253.363228,211.464589 L225.336323,211.464589 L225.336323,211.464589 Z M410.313901,211.464589 L410.313901,227.328612 L438.340807,227.328612 L438.340807,211.464589 L410.313901,211.464589 L410.313901,211.464589 Z" id="Shape" fill="#4F006C" sketch:type="MSShapeGroup"></path>
            <path d="M247.757847,217.130312 L230.941704,217.130312 L230.941704,382.002833 L218.049327,382.002833 L209.641255,382.002833 L209.641255,399 L218.049327,399 L260.65391,399 L269.061982,399 L269.061982,382.002833 L260.65391,382.002833 L247.757847,382.002833 L247.757847,217.130312 L247.757847,217.130312 Z" id="Line" fill="#4F006C" sketch:type="MSShapeGroup"></path>
            <path d="M432.735426,217.130312 L415.919283,217.130312 L415.919283,382.002833 L403.026906,382.002833 L394.618834,382.002833 L394.618834,399 L403.026906,399 L445.631489,399 L454.039561,399 L454.039561,382.002833 L445.631489,382.002833 L432.735426,382.002833 L432.735426,217.130312 L432.735426,217.130312 Z" id="Line" fill="#4F006C" sketch:type="MSShapeGroup"></path>
        </g>
    </g>
</svg>